<svg xmlns="http://www.w3.org/2000/svg" width="960" height="540" viewBox="0 0 960 540" role="img">
  <title>Active Arena execution speedup with OSMO</title>
  <desc>Speedup is 1.00 times with 1 concurrent GPU, 2.02 times with 2 GPUs, 4.05 times with 4 GPUs, and 7.95 times with 8 GPUs.</desc>
  <rect width="960" height="540" fill="#ffffff"/>
  <g font-family="Arial, Helvetica, sans-serif" fill="#222222">
    <text x="480" y="42" text-anchor="middle" font-size="26" font-weight="700">Active Arena execution speedup with OSMO</text>
    <text x="480" y="70" text-anchor="middle" font-size="15" fill="#555555">One Experiment containing eight independent Runs</text>

    <g stroke="#d9d9d9" stroke-width="1">
      <line x1="105" y1="420" x2="925" y2="420"/>
      <line x1="105" y1="344" x2="925" y2="344"/>
      <line x1="105" y1="267" x2="925" y2="267"/>
      <line x1="105" y1="191" x2="925" y2="191"/>
      <line x1="105" y1="114" x2="925" y2="114"/>
    </g>

    <g font-size="14" text-anchor="end" fill="#555555">
      <text x="92" y="425">0</text>
      <text x="92" y="349">2</text>
      <text x="92" y="272">4</text>
      <text x="92" y="196">6</text>
      <text x="92" y="119">8</text>
    </g>

    <g stroke="#333333" stroke-width="1.5">
      <line x1="105" y1="95" x2="105" y2="420"/>
      <line x1="105" y1="420" x2="925" y2="420"/>
    </g>

    <g fill="#76b900" stroke="#65a000" stroke-width="2">
      <rect x="140" y="381.8" width="100" height="38.2"/>
      <rect x="355" y="342.8" width="100" height="77.2"/>
      <rect x="570" y="265.2" width="100" height="154.8"/>
      <rect x="785" y="116.0" width="100" height="304.0"/>
    </g>

    <g font-size="18" font-weight="700" text-anchor="middle">
      <text x="190" y="355">1.00x</text>
      <text x="405" y="316">2.02x</text>
      <text x="620" y="238">4.05x</text>
      <text x="835" y="90">7.95x</text>
    </g>
    <g font-size="16" text-anchor="middle">
      <text x="190" y="451">1</text>
      <text x="405" y="451">2</text>
      <text x="620" y="451">4</text>
      <text x="835" y="451">8</text>
    </g>

    <text x="515" y="486" text-anchor="middle" font-size="17">Concurrent one-GPU Runs</text>
    <text x="30" y="258" text-anchor="middle" font-size="17" transform="rotate(-90 30 258)">Active Arena execution speedup</text>
    <text x="515" y="522" text-anchor="middle" font-size="14" fill="#666666">Eight Runs · 256 environments per Run · OSMO preparation and collection excluded</text>
  </g>
</svg>
